<?xml version="1.0" encoding="UTF-8" standalone="no"?>
<!-- Created with Inkscape (http://www.inkscape.org/) -->

<svg
   xmlns:dc="http://purl.org/dc/elements/1.1/"
   xmlns:cc="http://creativecommons.org/ns#"
   xmlns:rdf="http://www.w3.org/1999/02/22-rdf-syntax-ns#"
   xmlns:svg="http://www.w3.org/2000/svg"
   xmlns="http://www.w3.org/2000/svg"
   xmlns:sodipodi="http://sodipodi.sourceforge.net/DTD/sodipodi-0.dtd"
   xmlns:inkscape="http://www.inkscape.org/namespaces/inkscape"
   width="99.430412mm"
   height="99.456871mm"
   viewBox="0 0 99.430412 99.456871"
   version="1.1"
   id="svg4614"
   inkscape:version="0.92.4 5da689c313, 2019-01-14"
   sodipodi:docname="enseada-logo.svg">
  <defs
     id="defs4608" />
  <sodipodi:namedview
     id="base"
     pagecolor="#ffffff"
     bordercolor="#666666"
     borderopacity="1.0"
     inkscape:pageopacity="0.0"
     inkscape:pageshadow="2"
     inkscape:zoom="0.35"
     inkscape:cx="367.9"
     inkscape:cy="93.664285"
     inkscape:document-units="mm"
     inkscape:current-layer="layer1"
     showgrid="false"
     inkscape:window-width="958"
     inkscape:window-height="1055"
     inkscape:window-x="0"
     inkscape:window-y="23"
     inkscape:window-maximized="0" />
  <metadata
     id="metadata4611">
    <rdf:RDF>
      <cc:Work
         rdf:about="">
        <dc:format>image/svg+xml</dc:format>
        <dc:type
           rdf:resource="http://purl.org/dc/dcmitype/StillImage" />
        <dc:title></dc:title>
      </cc:Work>
    </rdf:RDF>
  </metadata>
  <g
     inkscape:label="Layer 1"
     inkscape:groupmode="layer"
     id="layer1"
     transform="translate(-8.4931253,-74.158468)">
    <g
       transform="matrix(0.26458333,0,0,0.26458333,-22.516041,-68.24028)"
       id="g4334">
      <path
         style="fill:#003144"
         inkscape:connector-curvature="0"
         id="path4308"
         d="m 305.1,914.1 c 51.9,0 98.9,-21 132.9,-55 6.4,-6.4 12.4,-13.3 17.9,-20.7 -0.9,-0.1 -1.8,-0.1 -2.8,-0.1 -8.5,0 -12.7,3.3 -17.2,6.8 -4.8,3.8 -9.8,7.7 -19.8,7.7 -10,0 -15,-3.9 -19.8,-7.7 -4.5,-3.5 -8.7,-6.8 -17.2,-6.8 -8.5,0 -12.7,3.3 -17.2,6.8 -4.8,3.8 -9.8,7.7 -19.8,7.7 -8.3,0 -13.1,-2.7 -17.3,-5.8 1.5,-0.7 3,-1.4 4.7,-2 3.2,2 7,3.5 12.7,3.5 8.5,0 12.7,-3.3 17.2,-6.8 4.8,-3.8 9.8,-7.7 19.8,-7.7 10,0 15,3.9 19.8,7.7 4.5,3.5 8.7,6.8 17.2,6.8 8.5,0 12.7,-3.3 17.2,-6.8 4.8,-3.8 9.8,-7.7 19.8,-7.7 2.1,0 4,0.2 5.7,0.5 3.6,-5.1 7,-10.5 10.1,-16 -4,-3 -8.2,-5.7 -15.8,-5.7 -8.5,0 -12.7,3.3 -17.2,6.8 -4.8,3.8 -9.8,7.7 -19.8,7.7 -10,0 -15,-3.9 -19.8,-7.7 -0.7,-0.6 -1.5,-1.1 -2.2,-1.7 1.1,-0.9 2.3,-1.9 3.4,-2.8 0.5,0.4 1,0.8 1.5,1.1 4.5,3.5 8.7,6.8 17.2,6.8 8.5,0 12.7,-3.3 17.2,-6.8 4.8,-3.8 9.8,-7.7 19.8,-7.7 8.6,0 13.6,2.9 17.8,6.2 1.8,-3.5 3.6,-7 5.2,-10.6 -2.2,-1.3 -4,-2.7 -5.9,-4.2 -4.5,-3.5 -8.7,-6.8 -17.2,-6.8 -8.5,0 -12.7,3.3 -17.2,6.8 -4.8,3.8 -9.8,7.7 -19.8,7.7 -3.9,0 -7.1,-0.6 -9.8,-1.6 1,-1.2 1.9,-2.4 2.8,-3.6 2,0.6 4.2,0.9 6.9,0.9 8.5,0 12.7,-3.3 17.2,-6.8 4.8,-3.8 9.8,-7.7 19.8,-7.7 10,0 15,3.9 19.8,7.7 1.6,1.3 3.2,2.5 5,3.6 9.7,-22.7 15.1,-47.7 15.1,-74 0,-103.8 -84.1,-187.9 -187.9,-187.9 -103.8,0 -187.9,84.1 -187.9,187.9 0,103.8 84.1,188 187.9,188 z M 132.3,800.2 c 1.8,-1.1 3.4,-2.3 5,-3.6 4.8,-3.8 9.8,-7.7 19.8,-7.7 10,0 15,3.9 19.8,7.7 4.5,3.5 8.7,6.8 17.2,6.8 2.7,0 5,-0.3 6.9,-0.9 0.9,1.2 1.8,2.4 2.8,3.6 -2.7,1 -5.8,1.6 -9.8,1.6 -10,0 -15,-3.9 -19.8,-7.7 -4.5,-3.5 -8.7,-6.8 -17.2,-6.8 -8.5,0 -12.7,3.3 -17.2,6.8 -1.8,1.4 -3.7,2.9 -5.9,4.2 -0.4,-1.3 -1,-2.6 -1.6,-4 z m 252.1,19.6 c -13.7,9.3 -30.4,16.4 -41.8,17.6 -19.2,2.1 -33.1,13.5 -37.6,17.7 -4.5,-4.2 -18.4,-15.6 -37.6,-17.7 -11.3,-1.2 -28.1,-8.3 -41.8,-17.6 C 209.2,808.6 199.1,795.9 197,784 l -0.4,-2.4 -6.6,2 c -0.6,-9.7 1.8,-20.1 4,-27.2 3.5,8.9 9,16.3 16.6,22.1 l -10.2,1.9 0.9,2.4 c 0.1,0.4 3.5,9.2 13.5,18 9.2,8 26,17.6 54,17.6 5.8,0 11.8,-2 17.8,-5.9 l 0.9,-0.6 7.5,-132.8 h -41.5 c -2.4,0 -4.3,-1.9 -4.3,-4.3 0,-2.4 1.9,-4.3 4.3,-4.3 h 42 l 0.9,-15.1 -1.5,-0.5 C 283,650.7 275,639.3 275,626.6 c 0,-16.5 13.5,-30 30,-30 16.5,0 30,13.5 30,30 0,12.7 -8,24 -19.9,28.3 l -1.5,0.5 0.9,15.1 h 42 c 2.4,0 4.3,1.9 4.3,4.3 0,2.4 -1.9,4.3 -4.3,4.3 H 315 l 7.5,132.8 0.9,0.6 c 6,3.9 12,5.9 17.8,5.9 27.9,0 44.8,-9.6 53.9,-17.6 10.1,-8.8 13.4,-17.6 13.5,-18 l 0.9,-2.4 -10.2,-1.9 c 7.6,-5.8 13.1,-13.2 16.6,-22.1 2.2,7.1 4.6,17.5 4,27.2 l -6.6,-2 -0.4,2.4 c -2,11.8 -12.1,24.6 -28.5,35.8 z M 250.9,796.6 c 4.5,3.5 8.7,6.8 17.2,6.8 7.8,0 12,-2.8 16.1,-5.9 l -0.3,5.5 c -3.9,2.6 -8.5,4.7 -15.8,4.7 -10,0 -15,-3.9 -19.8,-7.7 -4.5,-3.5 -8.7,-6.8 -17.2,-6.8 -6.2,0 -10.1,1.8 -13.5,4.1 -1.1,-1 -2.2,-2 -3.2,-3 4,-2.9 8.8,-5.3 16.7,-5.3 10,0 15,3.9 19.8,7.6 z m 144.8,-2.3 c -1,1 -2,2 -3.2,3 -3.4,-2.3 -7.3,-4 -13.5,-4 -8.5,0 -12.7,3.3 -17.2,6.8 -4.8,3.8 -9.8,7.7 -19.8,7.7 -7.3,0 -11.9,-2.1 -15.8,-4.7 l -0.3,-5.5 c 4.1,3.2 8.3,5.9 16.1,5.9 8.5,0 12.7,-3.3 17.2,-6.8 4.8,-3.8 9.8,-7.7 19.8,-7.7 7.9,0 12.7,2.4 16.7,5.3 z m -256.4,20.4 c 4.3,-3.2 9.2,-6.2 17.8,-6.2 10,0 15,3.9 19.8,7.7 4.5,3.5 8.7,6.8 17.2,6.8 8.5,0 12.7,-3.3 17.2,-6.8 0.5,-0.4 1,-0.8 1.5,-1.2 1.1,1 2.2,1.9 3.4,2.8 -0.7,0.6 -1.5,1.1 -2.2,1.7 -4.8,3.8 -9.8,7.7 -19.8,7.7 -10,0 -15,-3.9 -19.8,-7.7 -4.5,-3.5 -8.7,-6.8 -17.2,-6.8 -7.6,0 -11.8,2.6 -15.8,5.7 -0.7,-1.1 -1.4,-2.4 -2.1,-3.7 z m 12.2,19.8 c 1.7,-0.3 3.6,-0.5 5.6,-0.5 10,0 15,3.9 19.8,7.7 4.5,3.5 8.7,6.8 17.2,6.8 8.5,0 12.7,-3.3 17.2,-6.8 4.8,-3.8 9.8,-7.7 19.8,-7.7 10,0 15,3.9 19.8,7.7 4.5,3.5 8.7,6.8 17.2,6.8 5.7,0 9.4,-1.5 12.7,-3.5 1.6,0.6 3.2,1.3 4.7,2 -4.2,3.1 -9,5.8 -17.3,5.8 -10,0 -15,-3.9 -19.8,-7.7 -4.5,-3.5 -8.7,-6.8 -17.2,-6.8 -8.5,0 -12.7,3.3 -17.2,6.8 -4.8,3.8 -9.8,7.7 -19.8,7.7 -10,0 -15,-3.9 -19.8,-7.7 -4.5,-3.5 -8.7,-6.8 -17.2,-6.8 -1,0 -1.9,0 -2.8,0.1 -1,-1.3 -2,-2.6 -2.9,-3.9 z m 236,60.6 c -2.3,-0.9 -5,-1.4 -8.4,-1.4 -8.5,0 -12.7,3.3 -17.2,6.8 -4.8,3.8 -9.8,7.7 -19.8,7.7 -10,0 -15,-3.9 -19.8,-7.7 -4.5,-3.5 -8.7,-6.8 -17.2,-6.8 -8.5,0 -12.7,3.3 -17.2,6.8 -4.8,3.8 -9.8,7.7 -19.8,7.7 -10,0 -15,-3.9 -19.8,-7.7 -4.5,-3.5 -8.7,-6.8 -17.2,-6.8 -3.4,0 -6.1,0.5 -8.4,1.4 -1.6,-0.8 -3.3,-1.6 -4.9,-2.5 3.4,-1.9 7.5,-3.2 13.3,-3.2 10,0 15,3.9 19.8,7.7 4.5,3.5 8.7,6.8 17.2,6.8 8.5,0 12.7,-3.3 17.2,-6.8 4.8,-3.8 9.8,-7.7 19.8,-7.7 10,0 15,3.9 19.8,7.7 4.5,3.5 8.7,6.8 17.2,6.8 8.5,0 12.7,-3.3 17.2,-6.8 4.8,-3.8 9.8,-7.7 19.8,-7.7 5.8,0 9.9,1.3 13.3,3.2 -1.6,0.9 -3.3,1.7 -4.9,2.5 z m -45.4,-21.2 c 8.5,0 12.7,-3.3 17.2,-6.8 4.8,-3.8 9.8,-7.7 19.8,-7.7 10,0 15,3.9 19.8,7.7 4.5,3.5 8.7,6.8 17.2,6.8 2.3,0 4.3,-0.2 6.1,-0.7 -2.1,1.7 -4.3,3.3 -6.5,4.9 -9.7,-0.1 -14.6,-4 -19.4,-7.7 -4.5,-3.5 -8.7,-6.8 -17.2,-6.8 -8.5,0 -12.7,3.3 -17.2,6.8 -4.8,3.8 -9.8,7.7 -19.8,7.7 -10,0 -15,-3.9 -19.8,-7.7 -4.5,-3.5 -8.7,-6.8 -17.2,-6.8 -8.5,0 -12.7,3.3 -17.2,6.8 -4.8,3.8 -9.8,7.7 -19.8,7.7 -10,0 -15,-3.9 -19.8,-7.7 -4.5,-3.5 -8.7,-6.8 -17.2,-6.8 -8.5,0 -12.7,3.3 -17.2,6.8 -4.8,3.7 -9.7,7.6 -19.4,7.7 -2.2,-1.6 -4.4,-3.3 -6.5,-4.9 1.8,0.4 3.7,0.7 6,0.7 8.5,0 12.7,-3.3 17.2,-6.8 4.8,-3.8 9.8,-7.7 19.8,-7.7 10,0 15,3.9 19.8,7.7 4.5,3.5 8.7,6.8 17.2,6.8 8.5,0 12.7,-3.3 17.2,-6.8 4.6,-3.6 9.3,-7.3 18.2,-7.6 l 0.6,0.6 h 1.9 l 0.6,-0.6 c 8.9,0.4 13.7,4.1 18.2,7.6 4.7,3.5 8.9,6.8 17.4,6.8 z" />
      <path
         style="fill:#ffffff"
         inkscape:connector-curvature="0"
         id="path4310"
         d="m 359.2,796.6 c -4.5,3.5 -8.7,6.8 -17.2,6.8 -7.8,0 -12,-2.8 -16.1,-5.9 l 0.3,5.5 c 3.9,2.6 8.5,4.7 15.8,4.7 10,0 15,-3.9 19.8,-7.7 4.5,-3.5 8.7,-6.8 17.2,-6.8 6.2,0 10.1,1.7 13.5,4 1.2,-1 2.2,-2 3.2,-3 -4,-2.9 -8.8,-5.3 -16.7,-5.3 -9.9,0.1 -14.9,4 -19.8,7.7 z" />
      <path
         style="fill:#ffffff"
         inkscape:connector-curvature="0"
         id="path4312"
         d="m 214.4,794.3 c 1,1 2,2 3.2,3 3.4,-2.3 7.3,-4.1 13.5,-4.1 8.5,0 12.7,3.3 17.2,6.8 4.8,3.8 9.8,7.7 19.8,7.7 7.3,0 11.9,-2.1 15.8,-4.7 l 0.3,-5.5 c -4.1,3.2 -8.3,5.9 -16.1,5.9 -8.5,0 -12.7,-3.3 -17.2,-6.8 -4.8,-3.8 -9.8,-7.7 -19.8,-7.7 -7.9,0.1 -12.6,2.5 -16.7,5.4 z" />
      <path
         style="fill:#ffffff"
         inkscape:connector-curvature="0"
         id="path4314"
         d="m 453,789 c -10,0 -15,3.9 -19.8,7.7 -4.5,3.5 -8.7,6.8 -17.2,6.8 -2.7,0 -5,-0.3 -6.9,-0.9 -0.9,1.2 -1.8,2.4 -2.8,3.6 2.7,1 5.8,1.6 9.8,1.6 10,0 15,-3.9 19.8,-7.7 4.5,-3.5 8.7,-6.8 17.2,-6.8 8.5,0 12.7,3.3 17.2,6.8 1.9,1.4 3.7,2.9 5.9,4.2 0.6,-1.3 1.2,-2.6 1.8,-4 v 0 c -1.8,-1.1 -3.4,-2.3 -5,-3.6 -5,-3.8 -10,-7.7 -20,-7.7 z" />
      <path
         style="fill:#ffffff"
         inkscape:connector-curvature="0"
         id="path4316"
         d="m 157.1,793.2 c 8.5,0 12.7,3.3 17.2,6.8 4.8,3.8 9.8,7.7 19.8,7.7 3.9,0 7.1,-0.6 9.8,-1.6 -1,-1.2 -1.9,-2.4 -2.8,-3.6 -2,0.6 -4.2,0.9 -6.9,0.9 -8.5,0 -12.7,-3.3 -17.2,-6.8 -4.8,-3.8 -9.8,-7.7 -19.8,-7.7 -10,0 -15,3.9 -19.8,7.7 -1.6,1.3 -3.2,2.5 -5,3.6 0.6,1.3 1.2,2.6 1.8,4 2.2,-1.3 4,-2.7 5.9,-4.2 4.3,-3.5 8.5,-6.8 17,-6.8 z" />
      <path
         style="fill:#ffffff"
         inkscape:connector-curvature="0"
         id="path4318"
         d="m 453,834 c -10,0 -15,3.9 -19.8,7.7 -4.5,3.5 -8.7,6.8 -17.2,6.8 -8.5,0 -12.7,-3.3 -17.2,-6.8 C 394,837.9 389,834 379,834 c -10,0 -15,3.9 -19.8,7.7 -4.5,3.5 -8.7,6.8 -17.2,6.8 -5.7,0 -9.4,-1.5 -12.7,-3.5 -1.6,0.6 -3.2,1.3 -4.7,2 4.2,3.1 9,5.8 17.3,5.8 10,0 15,-3.9 19.8,-7.7 4.5,-3.5 8.7,-6.8 17.2,-6.8 8.5,0 12.7,3.3 17.2,6.8 4.8,3.8 9.8,7.7 19.8,7.7 10,0 15,-3.9 19.8,-7.7 4.5,-3.5 8.7,-6.8 17.2,-6.8 1,0 1.9,0 2.8,0.1 1,-1.3 1.9,-2.6 2.9,-3.9 -1.6,-0.3 -3.5,-0.5 -5.6,-0.5 z" />
      <path
         style="fill:#ffffff"
         inkscape:connector-curvature="0"
         id="path4320"
         d="m 174.3,845.1 c 4.8,3.8 9.8,7.7 19.8,7.7 10,0 15,-3.9 19.8,-7.7 4.5,-3.5 8.7,-6.8 17.2,-6.8 8.5,0 12.7,3.3 17.2,6.8 4.8,3.8 9.8,7.7 19.8,7.7 8.3,0 13.1,-2.7 17.3,-5.8 -1.5,-0.7 -3,-1.4 -4.7,-2 -3.2,2 -7,3.5 -12.7,3.5 -8.5,0 -12.7,-3.3 -17.2,-6.8 C 246,837.9 241,834 231,834 c -10,0 -15,3.9 -19.8,7.7 -4.5,3.5 -8.7,6.8 -17.2,6.8 -8.5,0 -12.7,-3.3 -17.2,-6.8 C 172,837.9 167,834 157,834 c -2.1,0 -3.9,0.2 -5.6,0.5 0.9,1.3 1.9,2.6 2.9,3.9 0.9,-0.1 1.8,-0.1 2.8,-0.1 8.6,0 12.8,3.3 17.2,6.8 z" />
      <path
         style="fill:#ffffff"
         inkscape:connector-curvature="0"
         id="path4322"
         d="m 306.1,860.1 h -1.9 l -0.6,-0.6 c -8.9,0.4 -13.7,4.1 -18.2,7.6 -4.5,3.5 -8.7,6.8 -17.2,6.8 -8.5,0 -12.7,-3.3 -17.2,-6.8 -4.8,-3.8 -9.8,-7.7 -19.8,-7.7 -10,0 -15,3.9 -19.8,7.7 -4.5,3.5 -8.7,6.8 -17.2,6.8 -2.3,0 -4.3,-0.2 -6,-0.7 2.1,1.7 4.3,3.3 6.5,4.9 9.7,-0.1 14.6,-4 19.4,-7.7 4.5,-3.5 8.7,-6.8 17.2,-6.8 8.5,0 12.7,3.3 17.2,6.8 4.8,3.8 9.8,7.7 19.8,7.7 10,0 15,-3.9 19.8,-7.7 4.5,-3.5 8.7,-6.8 17.2,-6.8 8.5,0 12.7,3.3 17.2,6.8 4.8,3.8 9.8,7.7 19.8,7.7 10,0 15,-3.9 19.8,-7.7 4.5,-3.5 8.7,-6.8 17.2,-6.8 8.5,0 12.7,3.3 17.2,6.8 4.8,3.7 9.7,7.6 19.4,7.7 2.2,-1.6 4.4,-3.3 6.5,-4.9 -1.8,0.4 -3.8,0.7 -6.1,0.7 -8.5,0 -12.7,-3.3 -17.2,-6.8 -4.8,-3.8 -9.8,-7.7 -19.8,-7.7 -10,0 -15,3.9 -19.8,7.7 -4.5,3.5 -8.7,6.8 -17.2,6.8 -8.5,0 -12.7,-3.3 -17.2,-6.8 -4.6,-3.6 -9.3,-7.3 -18.2,-7.6 z" />
      <path
         style="fill:#ffffff"
         inkscape:connector-curvature="0"
         id="path4324"
         d="m 359.2,897.2 c -4.5,3.5 -8.7,6.8 -17.2,6.8 -8.5,0 -12.7,-3.3 -17.2,-6.8 -4.8,-3.8 -9.8,-7.7 -19.8,-7.7 -10,0 -15,3.9 -19.8,7.7 -4.5,3.5 -8.7,6.8 -17.2,6.8 -8.5,0 -12.7,-3.3 -17.2,-6.8 -4.8,-3.8 -9.8,-7.7 -19.8,-7.7 -5.8,0 -9.9,1.3 -13.3,3.2 1.6,0.9 3.3,1.7 4.9,2.5 2.3,-0.9 5,-1.4 8.4,-1.4 8.5,0 12.7,3.3 17.2,6.8 4.8,3.8 9.8,7.7 19.8,7.7 10,0 15,-3.9 19.8,-7.7 4.5,-3.5 8.7,-6.8 17.2,-6.8 8.5,0 12.7,3.3 17.2,6.8 4.8,3.8 9.8,7.7 19.8,7.7 10,0 15,-3.9 19.8,-7.7 4.5,-3.5 8.7,-6.8 17.2,-6.8 3.4,0 6.1,0.5 8.4,1.4 1.6,-0.8 3.3,-1.6 4.9,-2.5 -3.4,-1.9 -7.5,-3.2 -13.3,-3.2 -9.9,0 -14.9,3.9 -19.8,7.7 z" />
      <path
         style="fill:#ffffff"
         inkscape:connector-curvature="0"
         id="path4326"
         d="m 174.3,819.6 c 4.8,3.8 9.8,7.7 19.8,7.7 10,0 15,-3.9 19.8,-7.7 0.7,-0.6 1.5,-1.1 2.2,-1.7 -1.1,-0.9 -2.3,-1.9 -3.4,-2.8 -0.5,0.4 -1,0.8 -1.5,1.2 -4.5,3.5 -8.7,6.8 -17.2,6.8 -8.5,0 -12.7,-3.3 -17.2,-6.8 -4.8,-3.8 -9.8,-7.7 -19.8,-7.7 -8.6,0 -13.5,2.9 -17.8,6.2 0.7,1.3 1.4,2.5 2.1,3.8 4,-3 8.1,-5.7 15.8,-5.7 8.6,0 12.8,3.3 17.2,6.7 z" />
      <path
         style="fill:#ffffff"
         inkscape:connector-curvature="0"
         id="path4328"
         d="m 453,808.6 c -10,0 -15,3.9 -19.8,7.7 -4.5,3.5 -8.7,6.8 -17.2,6.8 -8.5,0 -12.7,-3.3 -17.2,-6.8 -0.5,-0.4 -1,-0.8 -1.5,-1.1 -1.1,1 -2.2,1.9 -3.4,2.8 0.7,0.6 1.5,1.1 2.2,1.7 4.8,3.8 9.8,7.7 19.8,7.7 10,0 15,-3.9 19.8,-7.7 4.5,-3.5 8.7,-6.8 17.2,-6.8 7.6,0 11.8,2.6 15.8,5.7 0.7,-1.3 1.4,-2.5 2.1,-3.8 -4.2,-3.3 -9.1,-6.2 -17.8,-6.2 z" />
      <path
         style="fill:#ffffff"
         inkscape:connector-curvature="0"
         id="path4330"
         d="m 413,783.9 0.4,-2.4 6.6,2 c 0.6,-9.7 -1.8,-20.1 -4,-27.2 -3.5,8.9 -9,16.3 -16.6,22.1 l 10.2,1.9 -0.9,2.4 c -0.1,0.4 -3.5,9.2 -13.5,18 -9.2,8 -26,17.6 -53.9,17.6 -5.8,0 -11.8,-2 -17.8,-5.9 l -0.9,-0.6 -7.6,-132.7 h 41.5 c 2.4,0 4.3,-1.9 4.3,-4.3 0,-2.4 -1.9,-4.3 -4.3,-4.3 h -42 l -0.9,-15.1 1.5,-0.5 c 11.9,-4.2 19.9,-15.6 19.9,-28.3 0,-16.5 -13.5,-30 -30,-30 -16.5,0 -30,13.5 -30,30 0,12.7 8,24 19.9,28.3 l 1.5,0.5 -0.9,15.1 h -42 c -2.4,0 -4.3,1.9 -4.3,4.3 0,2.4 1.9,4.3 4.3,4.3 H 295 l -7.5,132.8 -0.9,0.6 c -6,3.9 -12,5.9 -17.8,5.9 -28,0 -44.8,-9.6 -54,-17.6 -10.1,-8.8 -13.4,-17.6 -13.5,-18 l -0.9,-2.4 10.2,-1.9 c -7.6,-5.8 -13.1,-13.2 -16.6,-22.1 -2.2,7.1 -4.6,17.5 -4,27.2 l 6.6,-2 0.4,2.4 c 2,11.9 12.2,24.7 28.6,35.8 13.7,9.3 30.4,16.4 41.8,17.6 19.2,2.1 33.1,13.5 37.6,17.7 4.5,-4.2 18.4,-15.6 37.6,-17.7 11.3,-1.2 28.1,-8.3 41.8,-17.6 16.4,-11.2 26.5,-24 28.6,-35.9 z M 279.8,626.6 c 0,-13.9 11.3,-25.3 25.3,-25.3 13.9,0 25.3,11.3 25.3,25.3 0,13.9 -11.3,25.3 -25.3,25.3 -13.9,-0.1 -25.3,-11.4 -25.3,-25.3 z" />
      <path
         style="fill:#003144"
         inkscape:connector-curvature="0"
         id="path4332"
         d="m 330.3,626.6 c 0,-13.9 -11.3,-25.3 -25.3,-25.3 -13.9,0 -25.3,11.3 -25.3,25.3 0,13.9 11.3,25.3 25.3,25.3 14,-0.1 25.3,-11.4 25.3,-25.3 z" />
    </g>
  </g>
</svg>
