<svg id="Layer_1" data-name="Layer 1" xmlns="http://www.w3.org/2000/svg" viewBox="0 0 1920 1080">
    <defs>
        <style>.cls-1{fill:#1a616b;}</style>
    </defs>
    <title>EnseadaMarchio_Color</title>
    <path class="cls-1"
          d="M1174.49,324.74a41.86,41.86,0,0,0-60.57,57.76c.5.44,1,.86,1.48,1.34s.89,1,1.34,1.48a41.86,41.86,0,0,0,57.76-60.57Z"/>
    <path class="cls-1"
          d="M1144.9,396.2a41.56,41.56,0,0,1-28.17-10.89c-.44-.5-.86-1-1.34-1.48s-1-.9-1.48-1.34a41.87,41.87,0,1,1,31,13.7Z"/>
    <path class="cls-1"
          d="M1427.13,342.73A505.22,505.22,0,0,0,1318.5,181.59q-13.29-13.29-27.4-25.47A506.52,506.52,0,0,0,763.2,72.69q-11.41,4.83-22.52,10.18a506.87,506.87,0,1,0,686.45,259.86ZM761.31,358c0-.08,0-.15,0-.23a75.36,75.36,0,1,1,30.42,60.5,207.52,207.52,0,0,0-49.42,291.3L1048,403.91a108.87,108.87,0,1,1,205.8-49.58h0a108.9,108.9,0,0,1-158.43,96.94L789.67,756.93a207.51,207.51,0,0,0,291.27-49.4A75.35,75.35,0,1,1,1142.16,739c-.53,0-1.06,0-1.59,0a274.45,274.45,0,0,1-419.28,48,32.93,32.93,0,0,1-9-9,274.47,274.47,0,0,1,49-420Z"/>
</svg>